PathFileType	4	(X/Y/Z)	C:\Users\°ÂÌØÂü\Desktop\20210112\bx_y_0_1802-Unnamed.trc
DataRate	CameraRate	NumFrames	NumMarkers	Units	OrigDataRate	OrigDataStartFrame	OrigNumFrames
50.00	50.00	       4	0	mm	50.00	329	       375
Frame#	Time	
		

329	6.560	-720.79272	246.67223	643.49457	-653.66443	-72.04747	860.29431	-639.74316	275.93787	880.60181	-585.47260	211.12444	818.34363	-674.50909	201.12727	534.24591	-690.44305	269.30618	752.63177	-695.15161	79.44112	579.27496	-726.17133	241.98167	579.10181	-672.26703	17.09172	521.36157	-769.06738	251.03403	505.44611	-700.67657	-53.08438	720.26019	-685.60541	-77.43588	1543.89111	-666.33563	-67.25383	162.38741	-711.69025	151.00304	216.26025	-771.33960	220.88553	205.04979	-882.50702	296.02576	144.51955	-603.53271	18.38100	167.28247	-675.38373	171.58023	156.65527	-594.88940	222.45831	173.53479	-667.05188	297.90118	161.03709	-560.94080	261.69781	165.65869	-528.08221	303.93027	146.41638	-689.24518	104.46238	1851.64502	-703.17230	287.34216	1532.50391	-625.08307	-78.68346	158.67111	-517.32397	-72.64606	143.35034	-629.53064	305.98764	163.23257	-716.40802	78.34373	216.94438	-768.83112	-4.19278	207.31093	-793.99976	58.01077	175.61702	-796.13727	171.33220	184.68500	-601.39850	-13.78879	1053.72729	-768.64905	-34.46624	489.81937	-875.85522	-78.73365	141.22168	-590.36768	213.53343	1073.49121	-705.36523	-30.36538	616.24872	-720.01117	-26.24580	569.02881	-561.22662	-41.02765	163.54112	-797.54755	92.67820	1055.73596				-591.50275	-7.32511	804.55249	-688.45557	139.54066	578.45215	-675.21295	54.92393	158.46362	
330	6.580	-720.55560	246.67299	643.53271	-653.54291	-71.90807	860.60394	-639.65137	275.92081	880.55939	-585.31061	211.02110	818.47900	-674.37396	201.12271	534.36682	-690.39636	269.48880	752.77289	-695.01367	79.41508	579.13983	-726.11560	241.89009	579.13904	-671.74634	17.31234	521.42291	-769.00885	251.00624	505.60922	-700.50854	-52.88677	720.11743	-685.69043	-77.40221	1543.89746	-666.18207	-67.20044	162.38336	-711.69025	151.00304	216.26025	-771.26093	220.84889	205.16785	-882.53381	296.08673	144.57939	-603.33618	18.50902	167.24933	-675.38373	171.58023	156.65527	-595.02094	222.22900	173.87778	-666.86499	297.94946	160.95105	-560.92456	261.70993	165.41196	-527.99078	304.21622	146.57008	-689.12396	104.61674	1851.56189	-703.61047	286.75568	1532.22949	-624.98352	-78.55152	158.59027	-517.39807	-72.73922	143.27742	-629.39673	305.88263	163.33197	-716.43024	78.45916	216.80843	-768.46307	-4.30245	207.24991	-794.01373	58.15090	175.51266	-796.24335	171.37616	184.61934	-601.30774	-13.84181	1053.68872	-768.55975	-34.37802	489.68661	-875.99139	-78.70409	141.37393	-590.46252	213.72964	1073.31897	-705.27612	-30.36876	616.38501	-719.95160	-26.17099	568.97772	-561.22736	-41.08490	163.49982	-797.45862	92.80006	1055.80847				-591.44824	-7.19692	804.37024	-688.69739	139.75381	578.37213	-675.34674	55.10065	158.47272	
331	6.600	-720.25116	246.86185	643.41486	-653.30518	-71.96066	860.49542	-639.58179	276.08878	880.40002	-585.29523	211.10379	818.27081	-674.37378	200.93068	534.24927	-690.18536	269.59256	752.64587	-695.01367	79.41508	579.13983	-725.97650	242.01547	579.21521	-671.65674	17.53865	521.73248	-769.00049	251.08350	505.36951	-700.35919	-52.84575	720.26294	-685.68439	-77.39204	1543.83679	-666.34766	-67.15775	162.67409	-711.69025	151.00304	216.26025	-771.31989	220.78711	205.07059	-882.67053	296.19333	144.58157	-603.35071	18.55942	167.25610	-675.44775	171.69603	156.63203	-595.04944	222.27843	173.59959	-666.85236	297.85126	160.95969	-560.89417	261.73032	165.51765	-527.99078	304.21622	146.57008	-688.65332	104.69875	1851.47900	-703.56653	286.75769	1532.08582	-625.09479	-78.55618	158.75055	-517.39807	-72.73922	143.27742	-629.48090	306.06943	163.21318	-716.44116	78.53978	216.75064	-768.45673	-4.07255	207.23138	-793.99976	58.01077	175.61702	-796.13727	171.33220	184.68500	-601.09564	-13.72507	1053.42371	-768.70099	-34.17014	489.66437	-876.17596	-78.55567	141.83234	-590.29523	213.85919	1073.32141	-705.10156	-29.81046	616.08319	-720.06030	-26.16386	568.91284	-561.28516	-41.11146	163.67336	-797.10181	92.76948	1055.61414				-591.42682	-7.15159	804.29401	-688.45563	139.26994	578.28076	-675.08795	54.82795	158.56929	
332	6.620	-720.25116	246.86185	643.41486	-653.13409	-72.10094	860.68457	-639.47333	276.29239	880.54272	-585.03589	211.17693	818.40759	-674.30664	201.03973	534.34247	-690.27643	269.61502	752.82330	-694.99890	79.84942	579.59863	-725.94946	242.10522	579.06622	-671.53558	17.73881	521.51099	-769.00049	251.08350	505.36951	-699.87805	-52.76501	720.02631	-685.76703	-77.33540	1543.59387	-666.35321	-67.09972	162.71217	-711.69025	151.00304	216.26025	-771.22083	220.76988	205.01047	-882.47083	296.01529	144.54636	-603.35608	18.42899	167.17934	-675.30359	171.59724	156.77390	-595.11603	222.23958	173.73660	-666.92944	297.87628	160.95390	-560.86346	261.56345	165.42116	-528.02759	304.34650	146.51938	-688.18036	104.88831	1851.34875	-703.59058	286.71774	1532.07251	-625.09479	-78.55618	158.75055	-517.32397	-72.64606	143.35034	-629.36591	305.97461	163.41249	-716.43024	78.45916	216.80843	-768.34814	-3.91625	207.25128	-794.06781	58.19239	175.52795	-796.02026	171.12305	184.45627	-600.85016	-13.80074	1053.35193	-768.49780	-34.31933	489.89114	-876.11578	-78.86042	141.47495	-590.07336	213.86444	1073.20642	-705.10156	-29.81046	616.08319	-719.89984	-26.13066	569.11816	-561.14728	-41.12934	163.78363	-797.00439	92.90716	1055.63916				-591.07214	-6.90630	804.43030	-688.45557	139.54066	578.45215	-675.08527	55.05514	158.51517	
